<?xml version="1.0" encoding="UTF-8"?>
<svg id="Layer_1" data-name="Layer 1" xmlns="http://www.w3.org/2000/svg" viewBox="0 0 1249.96 272.92">
  <defs>
    <style>
      .cls-1 {
        fill: #364461;
      }

      .cls-1, .cls-2, .cls-3, .cls-4 {
        stroke-width: 0px;
      }

      .cls-2 {
        fill: #48546f;
      }

      .cls-3 {
        fill: #394663;
      }

      .cls-4 {
        fill: #c73737;
      }
    </style>
  </defs>
  <path class="cls-4" d="m271.88,135.65c-.22,75.71-61.14,137.29-135.83,137.27C61.33,272.91-.18,210.97,0,135.92.19,60.5,61.07-.06,136.66,0c74.12.05,135.43,61.56,135.22,135.65Zm-118.42-67.23c.25-12.6-2.22-24.78-4.46-36.93-1.11-6-2.19-13.14-10.14-13.55-6.68-.35-9.34,5.55-11.59,10.72-9.5,21.85-11.28,44.49-6.12,67.66,6.31,28.31,3.51,34.14-24.28,45.13-21.8,8.62-40.57,21.8-58.29,36.72-4.25,3.58-9.61,7.53-6.88,13.98,2.7,6.41,9.48,5.34,14.89,5.06,5.53-.29,11.1-1.5,16.46-3,20.62-5.77,37.08-18.49,52.93-32.16,13.98-12.06,23.66-12.09,37.99.12,18.1,15.42,37.74,28.46,59.55,38.01,6.52,2.86,14.74,7.38,20.29.8,6.49-7.69-.98-14.85-5.43-20.73-13.63-18.02-32.17-29.53-53.08-37.47-24.86-9.44-28.95-16.16-25.72-42.61,1.29-10.58,2.59-21.16,3.89-31.75Z"/>
  <path class="cls-1" d="m661.99,139.06c0-25.9-.04-51.8.03-77.7.02-7.28-.9-15.28,9.45-16.89,10.25-1.6,15.7,3.37,18.59,12.78,10.91,35.47,21.95,70.91,33.15,106.29,1.44,4.56,1.46,11.36,7.67,11.91,7.87.7,7.76-7.11,9.24-11.99,9.96-32.82,19.49-65.77,29.25-98.65,1.43-4.83,2.95-9.72,5.17-14.21,3.34-6.74,9.83-6.79,16.16-6.12,7.1.75,9.1,5.84,9.11,12.02.07,55.74.05,111.48.11,167.23,0,8.36-4.3,12.86-12.37,12.49-8-.37-11.8-5.32-11.74-13.5.15-19.14.07-38.29-.02-57.43-.02-3.83.73-8.81-4.02-10.05-6.16-1.61-7.29,4.07-8.53,8.14-4.44,14.52-8.66,29.11-12.71,43.75-2.64,9.55-8.29,13.4-18.48,13.29-10.06-.11-15.57-3.63-18.34-13.39-4.46-15.68-9.78-31.12-14.82-46.63-1.36-4.17-2.28-9.64-8.44-8.25-4.85,1.1-4.44,6.08-4.48,9.84-.19,18.02-.02,36.04-.17,54.05-.07,8.77,2.11,19.72-11.52,20.05-13.57.33-12.28-10.28-12.29-19.33-.02-25.9,0-51.8,0-77.7Z"/>
  <path class="cls-3" d="m353.99,40.94c11.54,2.24,26.27-4.73,38.67,5.95,10.61,9.14,17.51,42.23,11.14,54.71-2.4,4.7-6.46,6.05-11.17,5.9-4.67-.15-8.99-1.47-10.78-6.48-.74-2.09-1.04-4.34-1.47-6.53-1.85-9.51,5.43-24.19-5.2-27.67-13.25-4.35-28.85-1.81-43.43-1.77-4.45.01-6.8,3.6-7.49,7.87-.36,2.2-.46,4.47-.43,6.71.88,60.49-8.06,47.91,46.42,49.13,23.63.53,34.63,11.22,34.75,35.12.07,12.94.15,25.87-.02,38.81-.26,20.45-13.04,33.57-33.5,34.1-13.5.35-27.06.64-40.53-.08-26.36-1.4-44.31-37.21-30.17-59.35,3.4-5.32,8.49-4.67,13.52-4.48,6.37.24,8.31,4.53,9.32,9.99,1.68,9.08-4.31,20.48,4.68,26.98,9.61,6.94,21.92,2.29,32.99,3.26,14.52,1.28,19.52-5.06,19.34-19.79-.49-40.73.1-40.74-41.34-40.75-29.46,0-40.18-10.85-40.19-40.67,0-11.81-.04-23.62,0-35.43.09-24.94,10.78-35.47,36.02-35.53,5.63-.01,11.26,0,18.84,0Z"/>
  <path class="cls-3" d="m827.02,139.47c0-25.88.43-51.76-.19-77.63-.32-13.08,4.39-18.3,17.73-17.72,18.55.8,37.16.06,55.75.24,19.11.19,32.28,13.41,32.53,32.89.26,20.25.26,40.5,0,60.75-.26,19.84-11.72,31.18-31.4,31.44-11.82.15-23.67.38-35.48-.07-10.19-.39-14.38,4.25-14.28,14.03.13,12.94.02,25.88-.04,38.81-.04,8.27-2.69,14.67-12.36,14.5-9.31-.17-12.37-5.89-12.32-14.55.16-27.56.06-55.13.05-82.69Zm81.27-30.04c2.63-49.14,2.34-40.15-38.51-41.65-14.65-.54-18.91,5.88-18.49,18.97.42,12.92.7,25.9-.07,38.79-.9,14.85,3.85,21.11,20.06,20.55,42.85-1.48,36.48,5.02,37.01-36.67Z"/>
  <path class="cls-3" d="m586.61,44.12c12.97,0,25.94.21,38.9-.06,8.45-.17,12.72,3.57,12.75,11.92.03,8.64-5.83,9.64-12.64,9.6-16.35-.09-32.71.37-49.04-.13-14.04-.43-20.6,4.83-20.43,19.68.57,49.14-3.26,40.46,39.9,41.24,9.02.16,18.04.05,27.06.02,7.97-.02,15.14,1.28,15.13,11.41-.01,9.91-6.57,11.59-14.92,11.46-16.91-.27-33.84.41-50.73-.25-11.82-.46-15.77,4.76-16.41,15.89-2.78,48.42-2.97,48.41,44.63,48.41,8.46,0,16.91.1,25.37-.01,6.48-.08,11.25,2.32,11.95,9.13.7,6.83-1.77,13.19-9.35,13.57-24.16,1.23-48.77,3.86-72.37-1.13-13.63-2.88-23.89-14.25-23.85-30.93.13-47.86.3-95.72-.14-143.58-.12-12.53,4.57-17.22,16.99-16.44,12.35.77,24.79.17,37.19.18Z"/>
  <path class="cls-3" d="m1063.89,170.41c0-10.11-.06-20.22.01-30.34.16-23.57,11.58-35.78,34.83-34.84,14.42.58,30.3-5.87,42.82,8.1,6.39,7.13,10.24,14.06,10.04,23.84-.45,21.9.06,43.82-.19,65.73-.23,20.4-13.19,33.27-33.76,33.91-7.3.23-14.64.37-21.93-.05-17.88-1.03-31.4-14.96-31.77-32.64-.23-11.23-.04-22.47-.04-33.71Zm63.12-.08c0-9.56-.39-19.15.1-28.68.64-12.36-6.8-14-16.29-12.95-8.98,1-22.19-5.08-22.43,11.92-.28,19.68-.04,39.37-.1,59.06-.03,8.25,4.33,12,12.17,13.31,20.19,3.37,26.51-1.82,26.56-22.42.02-6.75,0-13.5,0-20.25Z"/>
  <path class="cls-1" d="m456.96,150.98c0-21.91-.43-43.83.16-65.72.34-12.95-4.37-19-17.74-17.52-4.44.49-9,.23-13.48-.07-8-.53-10.15-5.77-9.86-12.83.27-6.63,3.3-10.61,10.28-10.62,28.12-.04,56.24-.02,84.35-.01,7.92,0,10.86,4.62,10.9,11.86.04,7.53-3.83,11.05-11.26,11.79-8.75.87-19.42-4-25.86,3.12-7.69,8.5-3.13,20.51-3.25,30.91-.46,38.75-.29,77.52-.11,116.28.04,9.09-.43,17.98-12.11,18.06-11.71.08-12.25-8.67-12.13-17.84.3-22.47.1-44.94.09-67.41Z"/>
  <path class="cls-3" d="m1194.2,175.22c0-9-.14-18,.04-26.99.2-10.02.18-19.35-13.48-20.76-5.66-.58-8.5-5.43-8.34-11.08.15-5.25,1.57-10.62,7.89-11.24,12.05-1.19,14.48-8.89,13.89-18.96-.51-8.67,3.38-11.92,12.08-11.81,8.86.12,12.75,4.38,11.94,12.39-1.47,14.51,5.51,19.45,18.84,18.18,8.27-.78,12.8,2.32,12.88,11.18.09,8.85-5.43,13.07-12.71,12.15-19.03-2.39-19.66,8.68-19.01,22.58.69,14.59.8,29.27-.03,43.85-.74,13.01,4.24,19.16,17.3,18.39,8.19-.49,14.72.71,14.48,11.25-.22,9.76-6.41,11.51-14.46,12.62-23.53,3.23-45.84-15.03-41.52-38.16,1.42-7.61.22-15.7.22-23.58Z"/>
  <path class="cls-3" d="m1036.84,140.75c0,26.94-.16,53.89.09,80.83.08,8.37-1.68,14.92-11.46,14.77-9.05-.14-12.42-5.76-12.4-14.51.13-54.45.09-108.9.03-163.35,0-8.25,1.84-14.26,11.97-14.41,10.29-.15,11.95,5.83,11.91,14.15-.13,27.51-.05,55.01-.05,82.52-.03,0-.07,0-.1,0Z"/>
  <path class="cls-2" d="m958.81,168.98c0-16.28.06-32.55-.04-48.83-.05-8.65,1.06-15.36,12.49-15.53,10.48-.15,12.44,6.08,12.48,13.9.21,34.8.2,69.59.05,104.39-.04,8.47-4.1,14.23-13.34,13.58-7.99-.56-11.71-5.6-11.67-13.63.09-17.96.03-35.92.02-53.88Z"/>
  <path class="cls-2" d="m971.45,64.54c6.61,1.52,11.67,5.63,11.73,12.26.07,7.59-4.79,12.42-13.02,11.72-7.18-.61-11.62-5.35-11-12.14.59-6.37,5.19-10.87,12.29-11.84Z"/>
  <path class="cls-4" d="m135.47,144.4c-5.38-.79-8.51-3.84-8.55-8.85-.05-5.94,3.66-9.4,9.51-9.08,4.87.27,8.49,3.49,8.45,8.6-.04,5.9-4,8.74-9.41,9.33Z"/>
</svg>